<?xml version="1.0" encoding="utf-8"?>
<svg width="1470px" height="548px" viewBox="0 0 1470 548" version="1.1" xmlns:xlink="http://www.w3.org/1999/xlink" xmlns="http://www.w3.org/2000/svg">
  <defs>
    <filter filterUnits="userSpaceOnUse" color-interpolation-filters="sRGB" id="filter_1">
      <feFlood flood-opacity="0" result="BackgroundImageFix" />
      <feColorMatrix in="SourceAlpha" type="matrix" values="0 0 0 0 0 0 0 0 0 0 0 0 0 0 0 0 0 0 127 0" />
      <feOffset dx="0" dy="2" />
      <feGaussianBlur stdDeviation="2" />
      <feColorMatrix type="matrix" values="0 0 0 0 0.39215687 0 0 0 0 0.39215687 0 0 0 0 0.39215687 0 0 0 0.49803922 0" />
      <feBlend mode="normal" in2="BackgroundImageFix" result="effect0_dropShadow" />
      <feColorMatrix in="SourceAlpha" type="matrix" values="0 0 0 0 0 0 0 0 0 0 0 0 0 0 0 0 0 0 127 0" />
      <feOffset dx="0" dy="2" />
      <feGaussianBlur stdDeviation="2" />
      <feColorMatrix type="matrix" values="0 0 0 0 0.39215687 0 0 0 0 0.39215687 0 0 0 0 0.39215687 0 0 0 0.49803922 0" />
      <feBlend mode="normal" in2="effect0_dropShadow" result="effect1_dropShadow" />
      <feBlend mode="normal" in="SourceGraphic" in2="effect1_dropShadow" result="shape" />
    </filter>
    <path d="M0 0L1470 0L1470 548L0 548L0 0Z" id="path_1" />
    <path d="M0 0L354 0L354 354L0 354L0 0Z" id="path_2" />
    <clipPath id="mask_1">
      <use xlink:href="#path_1" />
    </clipPath>
    <clipPath id="mask_2">
      <use xlink:href="#path_2" />
    </clipPath>
  </defs>
  <g id="logo">
    <path d="M0 0L1470 0L1470 548L0 548L0 0Z" id="Background" fill="none" fill-rule="evenodd" stroke="none" />
    <g clip-path="url(#mask_1)">
      <g id="pergunta---aí" transform="translate(469.4707 163.4668)">
        <path d="M920.85 36.9L958.35 22.2L958.35 0L920.85 16.95L920.85 36.9L920.85 36.9ZM618.9 101.7L618.9 126.75L606.15 126.75C584.65 126.75 573.9 116.1 573.9 94.8002L573.9 67.05L563.55 67.05L563.55 42.6L573.9 42.6L573.9 22.2L603.45 22.2L603.45 42.6L618.75 42.6L618.75 67.05L603.45 67.05L603.45 95.2502C603.45 97.5502 603.975 99.2002 605.025 100.2C606.075 101.2 607.85 101.7 610.35 101.7L618.9 101.7L618.9 101.7ZM39.15 45C34.95 47.3 31.7 50.4 29.4 54.3L29.4 42.6L0 42.6L0 166.95L29.4 166.95L29.4 115.05C31.8 118.95 35.075 122.05 39.225 124.35C43.375 126.65 48.3 127.8 54 127.8C60.7 127.8 66.775 126.05 72.225 122.55C77.675 119.05 81.975 114.025 85.125 107.475C88.275 100.925 89.85 93.3002 89.85 84.6002C89.85 75.9001 88.275 68.3 85.125 61.8C81.975 55.3 77.675 50.3 72.225 46.8C66.775 43.3 60.7 41.55 54 41.55C48.3 41.55 43.35 42.7 39.15 45L39.15 45ZM181.95 90.6002C182.25 88.3002 182.4 86.0002 182.4 83.7002C182.4 75.1001 180.6 67.625 177 61.275C173.4 54.925 168.4 50.05 162 46.65C155.6 43.25 148.25 41.55 139.95 41.55C131.55 41.55 124.125 43.3 117.675 46.8C111.225 50.3 106.2 55.275 102.6 61.725C99 68.175 97.2 75.8001 97.2 84.6002C97.2 93.4002 99.025 101.05 102.675 107.55C106.325 114.05 111.375 119.05 117.825 122.55C124.275 126.05 131.65 127.8 139.95 127.8C146.85 127.8 153.15 126.5 158.85 123.9C164.55 121.3 169.275 117.725 173.025 113.175C176.775 108.625 179.3 103.45 180.6 97.6502L149.25 97.6502C147.15 102.05 143.65 104.25 138.75 104.25C135.25 104.25 132.375 103.125 130.125 100.875C127.875 98.6252 126.6 95.2002 126.3 90.6002L181.95 90.6002L181.95 90.6002ZM307.425 45C303.175 42.7 298.2 41.55 292.5 41.55C285.8 41.55 279.725 43.3 274.275 46.8C268.825 50.3 264.525 55.3 261.375 61.8C258.225 68.3 256.65 75.9001 256.65 84.6002C256.65 93.3002 258.225 100.925 261.375 107.475C264.525 114.025 268.825 119.05 274.275 122.55C279.725 126.05 285.8 127.8 292.5 127.8C298.2 127.8 303.175 126.65 307.425 124.35C311.675 122.05 314.95 118.95 317.25 115.05L317.25 125.85C317.25 137.05 312.25 142.65 302.25 142.65C298.45 142.65 295.35 141.9 292.95 140.4C290.55 138.9 289.05 136.8 288.45 134.1L259.5 134.1C260.6 144.6 265.05 152.9 272.85 159C280.65 165.1 291.05 168.15 304.05 168.15C313.75 168.15 321.775 166.25 328.125 162.45C334.475 158.65 339.15 153.575 342.15 147.225C345.15 140.875 346.65 133.75 346.65 125.85L346.65 42.6L317.25 42.6L317.25 54.3C314.95 50.4 311.675 47.3 307.425 45L307.425 45ZM632.325 61.8C629.175 68.3 627.6 75.9001 627.6 84.6002C627.6 93.3002 629.175 100.925 632.325 107.475C635.475 114.025 639.775 119.05 645.225 122.55C650.675 126.05 656.75 127.8 663.45 127.8C669.15 127.8 674.125 126.65 678.375 124.35C682.625 122.05 685.9 118.95 688.2 115.05L688.2 126.75L717.6 126.75L717.6 42.6L688.2 42.6L688.2 54.3C685.9 50.4 682.65 47.3 678.45 45C674.25 42.7 669.25 41.55 663.45 41.55C656.75 41.55 650.675 43.3 645.225 46.8C639.775 50.3 635.475 55.3 632.325 61.8L632.325 61.8ZM815.55 84.6002C815.55 75.9001 817.125 68.3 820.275 61.8C823.425 55.3 827.725 50.3 833.175 46.8C838.625 43.3 844.7 41.55 851.4 41.55C857.2 41.55 862.2 42.7 866.4 45C870.6 47.3 873.85 50.4 876.15 54.3L876.15 42.6L905.55 42.6L905.55 126.75L876.15 126.75L876.15 115.05C873.85 118.95 870.575 122.05 866.325 124.35C862.075 126.65 857.1 127.8 851.4 127.8C844.7 127.8 838.625 126.05 833.175 122.55C827.725 119.05 823.425 114.025 820.275 107.475C817.125 100.925 815.55 93.3002 815.55 84.6002L815.55 84.6002ZM223.8 57.45C227.1 52.65 231.1 48.85 235.8 46.05C240.5 43.25 245.55 41.85 250.95 41.85L250.95 73.2L242.7 73.2C236.3 73.2 231.55 74.45 228.45 76.95C225.35 79.45 223.8 83.8001 223.8 90.0002L223.8 126.75L194.4 126.75L194.4 42.6L223.8 42.6L223.8 57.45L223.8 57.45ZM544.5 51.525C538.8 45.075 531.1 41.85 521.4 41.85C515.7 41.85 510.65 43.025 506.25 45.375C501.85 47.725 498.35 50.8 495.75 54.6L495.75 42.6L466.35 42.6L466.35 126.75L495.75 126.75L495.75 81.6C495.75 76.8 497 73.025 499.5 70.275C502 67.525 505.45 66.15 509.85 66.15C514.05 66.15 517.4 67.525 519.9 70.275C522.4 73.025 523.65 76.8 523.65 81.6L523.65 126.75L553.05 126.75L553.05 77.7C553.05 66.7 550.2 57.975 544.5 51.525L544.5 51.525ZM449.55 42.6L449.55 126.75L420 126.75L420 114.75C417.5 118.55 414.05 121.625 409.65 123.975C405.25 126.325 400.2 127.5 394.5 127.5C384.7 127.5 376.975 124.275 371.325 117.825C365.675 111.375 362.85 102.6 362.85 91.5002L362.85 42.6L392.1 42.6L392.1 87.7502C392.1 92.5502 393.375 96.3252 395.925 99.0752C398.475 101.825 401.85 103.2 406.05 103.2C410.35 103.2 413.75 101.825 416.25 99.0752C418.75 96.3252 420 92.5502 420 87.7502L420 42.6L449.55 42.6L449.55 42.6ZM954.75 126.75L954.75 42.6L925.2 42.6L925.2 126.75L954.75 126.75L954.75 126.75ZM148.8 67.875C151.2 69.925 152.4 72.75 152.4 76.35L126.45 76.35C127.15 72.55 128.65 69.675 130.95 67.725C133.25 65.775 136.2 64.8 139.8 64.8C143.4 64.8 146.4 65.825 148.8 67.875L148.8 67.875ZM55.575 71.775C58.525 74.825 60 79.1001 60 84.6002C60 90.0002 58.525 94.2752 55.575 97.4252C52.625 100.575 49 102.15 44.7 102.15C40.4 102.15 36.775 100.6 33.825 97.5002C30.875 94.4002 29.4 90.1002 29.4 84.6002C29.4 79.2001 30.875 74.95 33.825 71.85C36.775 68.75 40.4 67.2 44.7 67.2C49 67.2 52.625 68.725 55.575 71.775L55.575 71.775ZM312.825 71.85C315.775 74.95 317.25 79.2001 317.25 84.6002C317.25 90.1002 315.775 94.4002 312.825 97.5002C309.875 100.6 306.25 102.15 301.95 102.15C297.55 102.15 293.9 100.575 291 97.4252C288.1 94.2752 286.65 90.0002 286.65 84.6002C286.65 79.1001 288.1 74.825 291 71.775C293.9 68.725 297.55 67.2 301.95 67.2C306.25 67.2 309.875 68.75 312.825 71.85L312.825 71.85ZM683.775 71.85C686.725 74.95 688.2 79.2001 688.2 84.6002C688.2 90.1002 686.725 94.4002 683.775 97.5002C680.825 100.6 677.2 102.15 672.9 102.15C668.5 102.15 664.85 100.575 661.95 97.4252C659.05 94.2752 657.6 90.0002 657.6 84.6002C657.6 79.1001 659.05 74.825 661.95 71.775C664.85 68.725 668.5 67.2 672.9 67.2C677.2 67.2 680.825 68.75 683.775 71.85L683.775 71.85ZM876.15 84.6002C876.15 79.2001 874.675 74.95 871.725 71.85C868.775 68.75 865.15 67.2 860.85 67.2C856.45 67.2 852.8 68.725 849.9 71.775C847 74.825 845.55 79.1001 845.55 84.6002C845.55 90.0002 847 94.2752 849.9 97.4252C852.8 100.575 856.45 102.15 860.85 102.15C865.15 102.15 868.775 100.6 871.725 97.5002C874.675 94.4002 876.15 90.1002 876.15 84.6002L876.15 84.6002Z" id="Shape" fill="#0D114F" fill-rule="evenodd" stroke="none" />
      </g>
      <g id="." transform="translate(1206.4297 227.375)">
        <path d="M28.75 50.75C20.0834 50.75 13.125 48.375 7.875 43.625C2.625 38.875 0 32.8333 0 25.5C0 18.1667 2.625 12.0833 7.875 7.25C13.125 2.41667 20.0834 0 28.75 0C37.25 0 44.125 2.41667 49.375 7.25C54.625 12.0833 57.25 18.1667 57.25 25.5C57.25 32.6667 54.625 38.6667 49.375 43.5C44.125 48.3333 37.25 50.75 28.75 50.75L28.75 50.75Z" id="Shape" fill="#3584FF" fill-rule="evenodd" stroke="none" />
      </g>
    </g>
  </g>
  <g id="iconmonstr-help-5" transform="translate(96 96.98047)">
    <path d="M0 0L354 0L354 354L0 354L0 0Z" id="Background" fill="none" fill-rule="evenodd" stroke="none" filter="url(#filter_1)" />
    <g clip-path="url(#mask_2)">
      <path d="M177 0C83.5145 0 0 62.3335 0 147.603C0 177.841 10.8855 207.533 30.1933 230.572C31.0045 257.565 15.104 296.298 0.796499 324.5C39.176 317.568 93.7363 302.257 118.472 287.094C254.703 320.237 354 236.87 354 147.603C354 61.8763 269.91 1.40667e-05 177 1.40667e-05L177 0ZM177.012 221.252C168.678 221.252 161.908 214.482 161.908 206.133C161.908 197.8 168.678 191.029 177.012 191.029C185.361 191.029 192.116 197.8 192.116 206.133C192.116 214.482 185.361 221.252 177.012 221.252L177.012 221.252ZM200.702 149.598C189.787 161.384 189.271 167.903 189.404 175.927L165.169 175.927C165.081 158.109 165.405 150.233 182.471 134.008C189.389 127.429 194.861 122.222 194.094 111.986C193.401 102.251 185.259 97.1769 177.618 97.1769C169.049 97.1769 159.019 103.549 159.019 121.5L134.74 121.5C134.74 92.5012 151.776 73.7539 178.12 73.7539C190.643 73.7539 201.602 77.8544 208.947 85.3032C215.85 92.2799 219.405 101.897 219.272 113.077C219.081 129.804 208.888 140.778 200.702 149.598L200.702 149.598Z" transform="translate(0 14.746094)" id="Shape" fill="#3485FF" fill-rule="evenodd" stroke="none" />
    </g>
  </g>
</svg>